PathFileType	4	(X/Y/Z)	Walk5.trc
DataRate	CameraRate	NumFrames	NumMarkers	Units	OrigDataRate	OrigDataStartFrame	OrigNumFrames
200.000000	200.000000	4	59	mm	200.000000	522	561
Frame#	Times		LFHD		C7		CLAV		STRN		RBack		LASI		RASI		RACR1		RUA1		RElbow		RFA1		RWRU		RCAR		LACR1		LFA1		LWRR		LCAR		RTH1		RTH2		RTH4		RLFC		LTH1		LTH3		LTH2		LLFC		LTB1		LTB3		LTB2		LTB4		LMT1		LToe		LMMAL		T10		RWRR		LMT5		LTH4		RFHD		LLMAL		RTH3		LPSI		RPSI		RBHD		LElbowM		RMT1		LUA1		RTB1		RMMAL		LBHD		LElbow		RTB2		RTB4		LWRU		RMT5		RElbowM		RTB3		RToe		RLMAL		RCAL		LCAL
			X1	Y1	Z1	X2	Y2	Z2	X3	Y3	Z3	X4	Y4	Z4	X5	Y5	Z5	X6	Y6	Z6	X7	Y7	Z7	X8	Y8	Z8	X9	Y9	Z9	X10	Y10	Z10	X11	Y11	Z11	X12	Y12	Z12	X13	Y13	Z13	X14	Y14	Z14	X15	Y15	Z15	X16	Y16	Z16	X17	Y17	Z17	X18	Y18	Z18	X19	Y19	Z19	X20	Y20	Z20	X21	Y21	Z21	X22	Y22	Z22	X23	Y23	Z23	X24	Y24	Z24	X25	Y25	Z25	X26	Y26	Z26	X27	Y27	Z27	X28	Y28	Z28	X29	Y29	Z29	X30	Y30	Z30	X31	Y31	Z31	X32	Y32	Z32	X33	Y33	Z33	X34	Y34	Z34	X35	Y35	Z35	X36	Y36	Z36	X37	Y37	Z37	X38	Y38	Z38	X39	Y39	Z39	X40	Y40	Z40	X41	Y41	Z41	X42	Y42	Z42	X43	Y43	Z43	X44	Y44	Z44	X45	Y45	Z45	X46	Y46	Z46	X47	Y47	Z47	X48	Y48	Z48	X49	Y49	Z49	X50	Y50	Z50	X51	Y51	Z51	X52	Y52	Z52	X53	Y53	Z53	X54	Y54	Z54	X55	Y55	Z55	X56	Y56	Z56	X57	Y57	Z57	X58	Y58	Z58	X59	Y59	Z59

522	2.61	954.18	1602.6	-96.285	793.01	1430.7	-66.513	920.71	1355.1	-69.305	998.76	1132.8	-63.269	750.55	1325.5	30.812	950.02	952.09	-186.32	954.71	967.48	84.083	866.52	1367.7	104.57	829.11	1158.6	166.25	796.6	1054.6	188.44	857.51	912.84	199.84	828.65	803.66	213.33	875.6	763.45	212.55	859.99	1367.1	-238.46	930.94	924.6	-297.18	968.85	769.15	-295.99	953.2	810.43	-254.37	903.4	765.07	131.78	1000.3	710.09	95.196	938.95	678.07	114.97	995.34	503.85	83.613	851.99	741.15	-212.96	868.5	559.54	-172.66	931.33	655.55	-166.52	865.8	450.74	-158.6	878.54	350.47	-76.501	829.64	169.36	-74.843	836.89	262.97	-148.76	856.04	257.76	-79.505	917.58	38.465	-76.924	964.84	28.867	-102.67	786.12	74.874	-41.01	765.17	1146.1	-59.307	884.52	809.8	163.94	881.4	21.088	-155.82	858.86	645.45	-191.56	961.57	1603.5	-23.465	772.33	62.415	-121.77	973.44	591.75	98.646	736.7	984.89	-96.318	740.56	988.27	17.894	792.9	1555.6	13.275	825.28	1022.6	-243.15	925.35	59.073	42.298	865.12	1158.3	-286.62	989.32	377.29	21.523	828.37	151.92	-6.6318	785.56	1565.2	-113.17	862.31	1038.8	-301.93	919.26	316.18	88.695	937.23	300.05	21.857	919.34	803.94	-316.99	869.6	55.843	102.84	785.95	1033.3	104.64	886.93	223.31	21.951	952.3	44.51	77.957	794.54	150.44	67.674	746.44	134.63	14.612	720.72	30.486	-68.395
523	2.615	959.35	1602.5	-96.279	797.92	1430.6	-66.503	925.6	1355.1	-69.46	1003.6	1132.9	-63.667	755.5	1325.4	30.713	955.02	951.81	-186.22	959.96	967.85	83.627	871.53	1367.5	104.47	833.38	1158.5	166.01	800.51	1054.6	188.02	860.41	912.52	199.78	830.7	803.56	213.41	877.28	762.91	212.68	864.73	1367.4	-238.48	938.85	925.72	-297.57	978.79	770.89	-295.96	962.58	812.02	-254.44	908.91	765.53	132.09	1006	711.17	95.02	944.89	678.77	115.02	1001.9	504.41	83.397	855.88	740.85	-212.93	871.49	559.18	-172.61	934.79	654.84	-166.47	868.2	450.34	-158.51	880.32	349.98	-76.389	830.3	169.16	-74.772	838.24	262.7	-148.7	857.24	257.39	-79.402	917.58	38.479	-76.926	964.86	28.893	-102.68	786.29	74.909	-40.94	769.96	1146	-59.619	886.69	809.19	164.08	881.4	21.086	-155.82	862.34	645.01	-191.46	966.73	1603.3	-23.458	772.43	62.534	-121.77	979.87	592.67	98.445	741.56	984.85	-96.407	745.54	988.4	17.741	798.02	1555.6	13.268	832.01	1022.6	-243.8	943.64	57.968	42.103	870.84	1158.8	-287.09	998.77	377.51	21.181	844.17	147.91	-7.7391	790.69	1565.3	-113.18	868.88	1039.2	-302.59	930.18	314.54	88.011	948.84	298.9	21.27	928.81	804.91	-317.05	887.46	53.202	102.19	789.97	1033.4	104.16	900.6	220.83	21.134	970.71	43.963	78	810.04	145.52	66.394	762.71	128.23	13.121	720.72	30.688	-68.346
524	2.62	964.51	1602.3	-96.252	802.84	1430.5	-66.477	930.49	1355	-69.604	1008.5	1132.8	-64.049	760.45	1325.3	30.627	959.95	951.44	-186.14	965.19	968.13	83.186	876.54	1367.2	104.39	837.68	1158.3	165.8	804.46	1054.6	187.64	863.35	912.15	199.75	832.81	803.41	213.51	879.02	762.32	212.82	869.46	1367.6	-238.5	946.71	926.8	-297.97	988.69	772.62	-295.94	971.95	813.61	-254.52	914.4	765.9	132.41	1011.7	712.11	94.841	950.76	679.36	115.08	1008.3	504.8	83.217	859.79	740.52	-212.89	874.54	558.79	-172.55	938.28	654.12	-166.41	870.66	449.91	-158.39	882.16	349.47	-76.266	830.99	168.95	-74.691	839.65	262.42	-148.63	858.48	257.01	-79.284	917.58	38.489	-76.924	964.89	28.918	-102.69	786.49	74.934	-40.851	774.74	1145.9	-59.914	888.9	808.52	164.22	881.39	21.073	-155.81	865.86	644.55	-191.35	971.89	1603	-23.431	772.55	62.662	-121.75	986.18	593.47	98.251	746.41	984.74	-96.477	750.53	988.47	17.608	803.13	1555.6	13.276	838.73	1022.6	-244.4	962.02	56.962	41.946	876.51	1159.2	-287.55	1008.1	377.64	20.85	860.16	143.92	-8.8151	795.81	1565.3	-113.16	875.42	1039.5	-303.22	941.11	312.81	87.351	960.42	297.7	20.699	938.24	805.87	-317.08	905.45	50.629	101.56	794.05	1033.4	103.72	914.32	218.33	20.338	989.2	43.509	78.077	825.73	140.58	65.143	779.21	121.84	11.649	720.74	30.913	-68.296
525	2.625	969.66	1602	-96.206	807.75	1430.4	-66.436	935.39	1354.8	-69.737	1013.4	1132.8	-64.416	765.4	1325	30.551	964.81	951	-186.07	970.42	968.31	82.76	881.55	1366.9	104.32	841.99	1158.1	165.62	808.45	1054.4	187.29	866.34	911.71	199.73	834.98	803.2	213.62	880.82	761.68	212.97	874.2	1367.7	-238.5	954.53	927.83	-298.39	998.55	774.33	-295.92	981.31	815.2	-254.6	919.86	766.18	132.74	1017.3	712.92	94.658	956.56	679.84	115.16	1014.6	505.03	83.074	863.72	740.14	-212.85	877.66	558.37	-172.48	941.81	653.38	-166.34	873.2	449.44	-158.27	884.06	348.93	-76.131	831.71	168.73	-74.601	841.1	262.11	-148.55	859.77	256.62	-79.152	917.58	38.492	-76.918	964.92	28.937	-102.7	786.7	74.952	-40.74	779.54	1145.7	-60.191	891.15	807.8	164.38	881.37	21.048	-155.79	869.41	644.07	-191.23	977.05	1602.7	-23.385	772.69	62.8	-121.73	992.37	594.15	98.065	751.26	984.58	-96.526	755.53	988.47	17.499	808.23	1555.4	13.301	845.43	1022.6	-244.97	980.48	56.073	41.815	882.15	1159.5	-288	1017.3	377.69	20.53	876.32	139.97	-9.857	800.92	1565.3	-113.13	881.9	1039.8	-303.84	952.04	310.99	86.716	971.96	296.45	20.144	947.63	806.79	-317.1	923.58	48.146	100.96	798.18	1033.4	103.31	928.08	215.83	19.561	1007.8	43.167	78.173	841.61	135.64	63.923	795.94	115.48	10.201	720.76	31.161	-68.245
